<svg width="512" height="512" viewBox="0 0 512 512" fill="none" xmlns="http://www.w3.org/2000/svg">
  <rect width="512" height="512" rx="20" fill="#1e293b"/>
  <defs>
    <linearGradient id="grad1" x1="0%" y1="0%" x2="100%" y2="100%">
      <stop offset="0%" style="stop-color:#00ffff;" />
      <stop offset="100%" style="stop-color:#ff00ff;" />
    </linearGradient>
    <filter id="glow">
      <feGaussianBlur stdDeviation="5" result="coloredBlur"/>
      <feMerge>
        <feMergeNode in="coloredBlur"/>
        <feMergeNode in="SourceGraphic"/>
      </feMerge>
    </filter>
  </defs>

  <!-- Background Grid -->
  <g opacity="0.1">
    <path d="M0 256 H 512 M 256 0 V 512" stroke="url(#grad1)" stroke-width="1"/>
    <circle cx="256" cy="256" r="100" stroke="url(#grad1)" stroke-width="1" stroke-dasharray="4 4"/>
    <circle cx="256" cy="256" r="150" stroke="url(#grad1)" stroke-width="1" stroke-dasharray="4 4"/>
    <circle cx="256" cy="256" r="200" stroke="url(#grad1)" stroke-width="1" stroke-dasharray="4 4"/>
  </g>

  <!-- Central Glowing Structure -->
  <g filter="url(#glow)">
    <!-- Core -->
    <circle cx="256" cy="256" r="40" fill="url(#grad1)" fill-opacity="0.2" stroke="url(#grad1)" stroke-width="2"/>
    
    <!-- Orbiting Elements -->
    <path d="M 256 176 A 80 80 0 0 1 336 256" stroke="url(#grad1)" stroke-width="4" fill="none"/>
    <path d="M 256 336 A 80 80 0 0 1 176 256" stroke="url(#grad1)" stroke-width="4" fill="none"/>
    <path d="M 176 256 A 80 80 0 0 1 256 176" stroke="url(#grad1)" stroke-width="2" fill="none" stroke-opacity="0.5"/>
    <path d="M 336 256 A 80 80 0 0 1 256 336" stroke="url(#grad1)" stroke-width="2" fill="none" stroke-opacity="0.5"/>

    <!-- Outer Rings -->
    <circle cx="256" cy="256" r="120" stroke="url(#grad1)" stroke-width="3" stroke-dasharray="10 5" fill="none" transform="rotate(15 256 256)"/>
    <circle cx="256" cy="256" r="160" stroke="url(#grad1)" stroke-width="2" fill="none" transform="rotate(-15 256 256)" stroke-opacity="0.7"/>
  </g>

  <!-- Foreground Schematic Lines -->
  <g opacity="0.6">
    <line x1="256" y1="60" x2="256" y2="100" stroke="url(#grad1)" stroke-width="1.5"/>
    <line x1="256" y1="452" x2="256" y2="412" stroke="url(#grad1)" stroke-width="1.5"/>
    <line x1="60" y1="256" x2="100" y2="256" stroke="url(#grad1)" stroke-width="1.5"/>
    <line x1="452" y1="256" x2="412" y2="256" stroke="url(#grad1)" stroke-width="1.5"/>
    
    <path d="M100 100 L 150 150" stroke="url(#grad1)" stroke-width="1.5"/>
    <path d="M412 100 L 362 150" stroke="url(#grad1)" stroke-width="1.5"/>
    <path d="M100 412 L 150 362" stroke="url(#grad1)" stroke-width="1.5"/>
    <path d="M412 412 L 362 362" stroke="url(#grad1)" stroke-width="1.5"/>
  </g>
</svg>