<svg width="512" height="512" viewBox="0 0 512 512" fill="none" xmlns="http://www.w3.org/2000/svg">
  <rect width="512" height="512" rx="20" fill="#1e293b"/>
  <defs>
    <linearGradient id="grad1" x1="0%" y1="0%" x2="100%" y2="100%">
      <stop offset="0%" style="stop-color:#00ffff;" />
      <stop offset="100%" style="stop-color:#ff00ff;" />
    </linearGradient>
    <filter id="glow">
      <feGaussianBlur stdDeviation="7" result="coloredBlur"/>
      <feMerge>
        <feMergeNode in="coloredBlur"/>
        <feMergeNode in="SourceGraphic"/>
      </feMerge>
    </filter>
  </defs>
  <g opacity="0.5">
    <circle cx="100" cy="120" r="5" fill="white" opacity="0.8"/>
    <circle cx="400" cy="80" r="3" fill="white" opacity="0.6"/>
    <circle cx="80" cy="400" r="4" fill="white" opacity="0.7"/>
    <circle cx="450" cy="450" r="6" fill="white" opacity="0.9"/>
    <circle cx="200" cy="300" r="2" fill="white" opacity="0.5"/>
  </g>
  <g transform="translate(400, 100)">
    <path d="M0 -25 L10 -8 L25 0 L10 8 L0 25 L-10 8 L-25 0 L-10 -8 Z" fill="url(#grad1)" filter="url(#glow)"/>
  </g>
  <g transform="translate(150, 350) rotate(-45 0 0)">
    <path d="M0 -50 C 25 -25, 25 25, 0 50 C -25 25, -25 -25, 0 -50 Z" fill="#e2e8f0"/>
    <circle cx="0" cy="-10" r="10" fill="#1e293b" stroke="url(#grad1)" stroke-width="2"/>
    <path d="M0 50 L 20 60 L 20 40 Z" fill="#94a3b8"/>
    <path d="M0 50 L -20 60 L -20 40 Z" fill="#94a3b8"/>
  </g>
  <g filter="url(#glow)">
    <path d="M195 395 Q 250 300 300 250" stroke="url(#grad1)" stroke-width="15" stroke-linecap="round" fill="none" opacity="0.8"/>
    <path d="M195 395 Q 230 320 270 280" stroke="url(#grad1)" stroke-width="8" stroke-linecap="round" fill="none" opacity="0.5"/>
  </g>
</svg>